<svg viewBox="0 0 24 24" xmlns="http://www.w3.org/2000/svg"><path fill="currentColor" d="M14.118,21l-7.118,0c-0.55,0 -1.021,-0.196 -1.412,-0.588c-0.392,-0.392 -0.587,-0.862 -0.587,-1.412l0,-13l-1,0l0,-2l5,0l0,-1l6,0l0,1l5,0l0,2l-1,0l0,6.72l-2,2l0,-8.72l-10,0l-0,13l5.118,0l2,2Zm-4,-4l-1.118,0l0,-9l2,0l0,7.865l-1.009,1.009l0.126,0.126Zm2.882,-3.135l0,-5.865l2,0l0,5.802l-0.968,-0.968l-1.032,1.032Z" /><path fill="currentColor" d="M12.376,16.874l1.655,-1.655l2.428,2.428l5.835,-5.808l1.655,1.655l-7.493,7.462l-4.082,-4.082Z"></svg>