<svg viewBox="0 0 24 24" xmlns="http://www.w3.org/2000/svg"><path fill="currentColor" d="M12.5,2C10.7,2 9.3,3.2 9,5C8.8,6 9,7 9.3,7.8C8.4,8.6 7.5,9.7 7,11C6.3,12.7 6,14.6 6,16.3C6,17 5.6,17.5 5.3,18C5,18.5 4.8,19 5.1,19.6C5.4,20.2 6.1,20.5 7,20.6C7.3,21.3 8,21.8 8.8,21.9C9.5,22 10.2,21.7 10.7,21.2C11.4,21.5 12.6,21.5 13.3,21.2C13.8,21.7 14.5,22 15.2,21.9C16,21.8 16.7,21.3 17,20.6C17.9,20.5 18.6,20.2 18.9,19.6C19.2,19 19,18.5 18.7,18C18.4,17.5 18,17 18,16.3C18,14.6 17.7,12.7 17,11C16.5,9.7 15.6,8.6 14.7,7.8C15,7 15.2,6 15,5C14.7,3.2 13.3,2 12.5,2M11.8,4.5C12.2,4.5 12.5,4.9 12.5,5.3C12.5,5.7 12.2,6 11.8,6C11.4,6 11.1,5.7 11.1,5.3C11.1,4.9 11.4,4.5 11.8,4.5M13.5,4.7C13.9,4.7 14.2,5.1 14.2,5.5C14.2,5.9 13.9,6.2 13.5,6.2C13.1,6.2 12.8,5.9 12.8,5.5C12.8,5.1 13.1,4.7 13.5,4.7M10,9C10.6,9 11,9.6 11,10.2C11,10.8 10.6,11.3 10,11.3C9.7,11.3 9.4,11.2 9.2,11C9,11.7 9,12.5 9.3,13.2C9.5,13.7 9.9,14 10.4,14.1C10.6,14.1 10.8,14.1 11,14C11.3,13.9 11.5,13.6 11.6,13.3C11.7,13 11.6,12.7 11.4,12.5C11.7,12.5 12,12.6 12.2,12.8C12.5,13 12.6,13.4 12.5,13.7C12.5,14 12.2,14.3 11.9,14.4C12.4,14.7 13.1,14.7 13.6,14.4C13.3,14.3 13,14 13,13.7C12.9,13.4 13,13 13.3,12.8C13.5,12.6 13.8,12.5 14.1,12.5C13.9,12.7 13.8,13 13.9,13.3C14,13.6 14.2,13.9 14.5,14C14.7,14.1 14.9,14.1 15.1,14.1C15.6,14 16,13.7 16.2,13.2C16.5,12.5 16.5,11.7 16.3,11C16.1,11.2 15.8,11.3 15.5,11.3C14.9,11.3 14.5,10.8 14.5,10.2C14.5,9.6 14.9,9 15.5,9C16.1,9 16.5,9.6 16.5,10.2C16.9,11 17.1,11.9 17,12.8C16.9,13.7 16.4,14.5 15.6,14.9C15.3,15.7 15.1,16.6 15.4,17.4C15.6,17.9 16,18.3 16.5,18.4C16.3,18.7 16,18.9 15.6,19C15.2,19.1 14.8,19 14.5,18.7C14.3,18.9 14.1,19 13.8,19C13.5,19 13.2,18.9 13,18.7C12.6,19 12,19.1 11.5,18.9C11.2,18.8 11,18.6 10.8,18.4C10.5,18.7 10.1,18.9 9.7,18.8C9.3,18.7 9,18.4 8.8,18C9,18.4 9.2,18.8 9.4,19.2C9.6,19.5 9.9,19.7 10.2,19.6C10.5,19.5 10.6,19.2 10.8,19C11.3,19.4 12,19.6 12.6,19.5C12.9,19.5 13.2,19.3 13.4,19.1C13.7,19.4 14.1,19.6 14.5,19.5C14.8,19.5 15,19.2 15.1,18.9C15.2,19.2 15.4,19.5 15.7,19.6C16,19.7 16.3,19.5 16.5,19.2C16.7,18.9 16.8,18.5 16.9,18.1C17.3,18.2 17.6,17.9 17.6,17.5C17.6,17.1 17.3,16.8 16.9,16.8C16.9,15.3 16.6,13.8 15.9,12.5C16.3,11.3 16.2,10 15.6,8.9C15.5,8.7 15.3,8.6 15.1,8.6C14.9,8.6 14.7,8.7 14.6,8.9C13.9,10.1 13.8,11.5 14.3,12.7C13.6,12.9 12.9,12.9 12.2,12.7C11.7,11.5 11.6,10.1 10.9,8.9C10.8,8.7 10.6,8.6 10.4,8.6C10.2,8.6 10,8.7 9.9,8.9C9.3,10 9.2,11.3 9.6,12.5C8.9,13.8 8.6,15.3 8.6,16.8C8.2,16.8 7.9,17.1 7.9,17.5C7.9,17.9 8.2,18.2 8.6,18.1C8.7,18.5 8.8,18.9 9,19.2C8.5,18.5 8.2,17.6 8.3,16.7C8.4,16.1 8.6,15.5 8.5,15C8.4,13.7 8.6,12.4 9.1,11.2C9.5,10.1 10.1,9.1 10.9,8.3C10.7,7.7 10.6,7 10.7,6.4C10.8,5.7 11.1,5 11.6,4.5C12,4.1 12.6,4 13.1,4.2C13.6,4.4 13.9,4.9 14,5.4C14.1,5.9 14,6.5 13.7,6.9C14.4,7.6 15,8.4 15.3,9.4C13.9,8.7 12.3,8.6 10.8,9C10.5,8 10.5,6.9 10.9,6C11.2,5.3 11.7,4.7 12.5,4.5"/></svg>
