<?xml version="1.0" encoding="UTF-8" standalone="no"?>
<!DOCTYPE svg PUBLIC "-//W3C//DTD SVG 1.1//EN" "http://www.w3.org/Graphics/SVG/1.1/DTD/svg11.dtd">
<svg width="100%" height="100%" viewBox="0 0 1024 1024" version="1.1" xmlns="http://www.w3.org/2000/svg" xmlns:xlink="http://www.w3.org/1999/xlink" xml:space="preserve" xmlns:serif="http://www.serif.com/" style="fill-rule:evenodd;clip-rule:evenodd;stroke-linejoin:round;stroke-miterlimit:2;">
    <path d="M0,512C0,46.08 46.08,0 512,0C977.92,0 1024,46.08 1024,512C1024,977.92 977.92,1024 512,1024C46.08,1024 0,977.92 0,512" style="fill:rgb(0,51,255);fill-rule:nonzero;"/>
    <g transform="matrix(7.799388,0,0,7.799388,123.248465,123.247245)">
        <path d="M42.633,43.003C42.093,43.218 41.505,43.337 40.889,43.337C38.287,43.337 36.175,41.225 36.175,38.623C36.175,36.021 38.287,33.909 40.889,33.909C43.491,33.909 45.603,36.021 45.603,38.623L45.591,38.956L63.285,43.13C64.134,41.887 65.563,41.07 67.181,41.07C69.783,41.07 71.895,43.182 71.895,45.784C71.895,48.386 69.783,50.498 67.181,50.498C66.414,50.498 65.689,50.314 65.049,49.989L51.439,65.226C51.766,65.867 51.95,66.593 51.95,67.361C51.95,69.963 49.838,72.075 47.236,72.075C44.634,72.075 42.522,69.963 42.522,67.361C42.522,64.952 44.333,62.962 46.668,62.681L48.941,54.706C47.406,53.928 46.353,52.335 46.353,50.498C46.353,49.737 46.534,49.018 46.854,48.381L42.634,43.002L42.633,43.003ZM62.478,45.454L44.783,41.279L44.594,41.536L48.515,46.534C49.251,46.059 50.126,45.784 51.066,45.784C53.668,45.784 55.78,47.896 55.78,50.498C55.78,53.007 53.816,55.061 51.343,55.204L49.111,63.035C49.348,63.138 49.574,63.26 49.789,63.398L63.228,48.352C62.746,47.613 62.466,46.73 62.466,45.783L62.477,45.453L62.478,45.454ZM44.399,54.182L9.476,54.182C7.939,54.182 6.624,53.635 5.529,52.54C4.435,51.446 3.887,50.13 3.887,48.593L3.887,9.475C3.887,7.938 4.434,6.623 5.529,5.528C6.623,4.434 7.939,3.886 9.476,3.886L48.594,3.886C50.131,3.886 51.446,4.433 52.541,5.528C53.635,6.622 54.183,7.938 54.183,9.475L54.183,38.002L48.595,36.683L48.595,9.475L9.477,9.475L9.477,48.593L43.333,48.593L43.61,48.947C43.506,49.447 43.451,49.966 43.451,50.498C43.451,51.834 43.795,53.089 44.4,54.181L44.399,54.182ZM34.662,43.005L12.27,43.005L20.652,31.828L26.939,40.21L35.321,29.033L37.424,31.838C34.96,33.1 33.272,35.665 33.272,38.621C33.272,40.252 33.786,41.764 34.661,43.004L34.662,43.005ZM74.725,46.815L91.522,46.815C93.059,46.815 94.374,47.362 95.469,48.457C96.563,49.551 97.111,50.867 97.111,52.404L97.111,91.522C97.111,93.059 96.564,94.374 95.469,95.469C94.375,96.563 93.059,97.111 91.522,97.111L52.404,97.111C50.867,97.111 49.552,96.564 48.457,95.469C47.363,94.375 46.815,93.059 46.815,91.522L46.815,74.966L47.234,74.977C49.228,74.977 51.045,74.209 52.403,72.952L52.403,91.521L91.521,91.521L91.521,52.403L70.945,52.403C72.96,51.253 74.401,49.21 74.725,46.815ZM55.198,85.933L63.58,74.756L69.867,83.138L78.249,71.961L88.727,85.932L55.197,85.932L55.198,85.933Z" style="fill:white;"/>
    </g>
</svg>
